<?xml version="1.0" standalone="no"?>
<!DOCTYPE svg PUBLIC "-//W3C//DTD SVG 20010904//EN"
 "http://www.w3.org/TR/2001/REC-SVG-20010904/DTD/svg10.dtd">
<svg version="1.0" xmlns="http://www.w3.org/2000/svg"
 width="512.000000pt" height="512.000000pt" viewBox="0 0 512.000000 512.000000"
 preserveAspectRatio="xMidYMid meet">
<metadata>
Created by potrace 1.14, written by Peter Selinger 2001-2017
</metadata>
<g transform="translate(0.000000,512.000000) scale(0.100000,-0.100000)"
fill="#000000" stroke="none">
<path d="M0 2560 l0 -2560 2560 0 2560 0 0 2560 0 2560 -2560 0 -2560 0 0
-2560z m2743 1816 c879 -96 1601 -176 1604 -179 5 -6 -135 -1318 -142 -1325
-2 -2 -81 4 -175 14 l-172 18 -81 61 c-193 144 -392 234 -653 294 -88 20 -216
43 -220 38 -4 -5 -62 -552 -58 -556 2 -2 166 13 365 33 199 20 363 35 364 34
3 -3 -75 -731 -79 -735 -1 -1 -159 50 -350 113 -191 64 -349 115 -350 113 -5
-6 -64 -564 -60 -568 2 -2 72 -6 156 -8 295 -10 558 40 772 148 l80 41 173
-20 c96 -11 176 -22 178 -24 3 -2 -28 -302 -67 -666 -61 -557 -75 -662 -88
-662 -33 0 -3192 349 -3196 352 -3 3 106 1029 110 1035 0 0 71 7 156 13 85 7
157 14 159 16 3 3 160 1422 161 1455 0 11 -39 27 -146 60 -81 24 -148 49 -151
55 -6 16 103 1024 110 1024 1 0 721 -78 1600 -174z"/>
</g>
</svg>
